<?xml version="1.0" standalone="no"?>
<!DOCTYPE svg PUBLIC "-//W3C//DTD SVG 20010904//EN"
 "http://www.w3.org/TR/2001/REC-SVG-20010904/DTD/svg10.dtd">
<svg version="1.0" xmlns="http://www.w3.org/2000/svg"
 viewBox="0 0 0 0"
 preserveAspectRatio="xMidYMid meet">

<g transform="translate(0.000000,86.000000) scale(0.100000,-0.100000)"
fill="#e50914" stroke="none">
<path d="M172 740 c-39 -24 -62 -73 -62 -132 1 -63 17 -90 103 -177 73 -74 77
-81 77 -123 0 -49 -13 -68 -47 -68 -26 0 -43 27 -43 69 0 33 -6 35 -60 25
l-32 -7 4 -59 c7 -98 52 -137 141 -124 86 13 137 79 137 177 0 70 -22 111 -92
172 -64 55 -88 91 -88 131 0 27 23 56 45 56 21 0 45 -29 45 -56 0 -22 4 -24
45 -24 45 0 45 0 45 35 0 20 -7 49 -15 64 -30 58 -139 80 -203 41z"/>
<path d="M420 710 l0 -40 45 0 45 0 0 -240 0 -240 34 0 c69 0 66 -12 66 246
l0 234 50 0 50 0 0 40 0 40 -145 0 -145 0 0 -40z"/>
<path d="M750 480 l0 -270 50 0 50 0 0 270 0 270 -50 0 -50 0 0 -270z"/>
<path d="M910 485 c0 -294 -3 -283 65 -271 l35 7 0 114 0 115 60 0 60 0 0 40
0 40 -60 0 -60 0 0 75 0 75 80 0 80 0 0 35 0 35 -130 0 -130 0 0 -265z"/>
<path d="M1210 480 l0 -270 58 0 c31 0 87 -3 125 -7 l67 -6 0 47 0 46 -52 0
c-106 0 -98 -20 -98 236 l0 224 -50 0 -50 0 0 -270z"/>
<path d="M1502 473 l3 -278 48 -3 47 -3 0 280 0 281 -50 0 -50 0 2 -277z"/>
<path d="M1689 643 c22 -59 44 -120 49 -135 9 -22 2 -50 -43 -175 l-53 -148
27 -6 c65 -16 64 -16 100 93 18 57 37 107 41 111 4 5 22 -46 41 -113 22 -77
39 -122 49 -124 8 -2 32 -7 53 -11 34 -5 38 -4 34 12 -3 10 -27 87 -53 171
l-48 153 43 122 c24 67 45 130 48 140 5 14 -2 17 -40 17 l-45 0 -33 -95 c-18
-52 -36 -95 -39 -95 -3 0 -19 42 -36 93 l-30 92 -52 3 -52 3 39 -108z"/>
</g>
</svg>
